<svg width="251" height="251" viewBox="0 0 251 251" fill="none" xmlns="http://www.w3.org/2000/svg">
<circle cx="125.5" cy="125.5" r="125.5" fill="#95D133"/>
<g clip-path="url(#clip0_479_97)">
<path d="M87.2923 181.081L83.6639 177.453C82.368 176.157 80.1651 176.676 79.6468 178.36C79.258 179.526 77.9622 180.174 76.7959 179.915C74.2042 179.267 70.7054 175.898 70.0575 173.177C69.6687 172.01 70.4462 170.715 71.6125 170.326C73.2971 169.807 73.8154 167.605 72.5196 166.309L68.8912 162.68C67.8545 161.773 66.2995 161.773 65.3924 162.68L62.9303 165.142C60.4682 167.734 63.1895 174.602 69.28 180.693C75.3705 186.783 82.2385 189.634 84.8302 187.042L87.2923 184.58C88.1994 183.543 88.1994 181.988 87.2923 181.081Z" fill="white"/>
</g>
<defs>
<clipPath id="clip0_479_97">
<rect width="26" height="26" fill="white" transform="translate(62 162)"/>
</clipPath>
</defs>
</svg>
