<svg width="91" height="87" viewBox="0 0 91 87" fill="none" xmlns="http://www.w3.org/2000/svg">
<path fill-rule="evenodd" clip-rule="evenodd" d="M9.46959 49.1155C8.69305 49.7761 7.93175 50.4746 7.18919 51.2104C-3.88405 62.182 1.13449 84.9431 1.13449 84.9431C1.13449 84.9431 24.1063 89.9156 35.1796 78.944C37.633 76.5131 39.6759 73.8793 41.2857 71.1687C37.1821 70.792 33.2616 69.7897 29.6223 68.259L28.0966 72.9058H12.3247L16.9311 59.6848C13.8887 56.6146 11.3563 53.0466 9.46959 49.1155Z" fill="#95D133"/>
<path fill-rule="evenodd" clip-rule="evenodd" d="M49.6506 71.061C51.2701 73.8096 53.3346 76.481 55.8206 78.9442C66.8939 89.9159 89.8657 84.9434 89.8657 84.9434C89.8657 84.9434 94.8842 62.1823 83.811 51.2106C82.8196 50.2283 81.7947 49.3124 80.7448 48.4643C79.0895 52.085 76.891 55.4099 74.2523 58.3369L79.3212 72.9061H63.5493L61.8048 67.5825C58.0442 69.3551 53.9542 70.5529 49.6506 71.061Z" fill="#95D133"/>
<path d="M36.166 1.18265C22.3603 4.98716 12.229 17.534 12.229 32.4255C12.229 50.3336 26.8808 64.851 44.9547 64.851C63.0286 64.851 77.6804 50.3336 77.6804 32.4255C77.6804 14.5174 63.0286 1.56131e-06 44.9547 0C48.2923 5.20437e-07 51.513 0.495069 54.5465 1.41509L69.2145 43.5745C66.4867 47.4918 62.8174 50.716 58.5305 52.9261L56.54 46.8519H34.0711L31.9781 53.2265C27.6794 51.1328 23.971 48.0312 21.1668 44.2329L36.166 1.18265Z" fill="#FF6900"/>
<path d="M37.4123 36.6756H53.2054L45.5594 13.3424H45.0732L37.4123 36.6756Z" fill="#FF6900"/>
</svg>
