<svg width="16" height="16" viewBox="0 0 16 16" fill="none" xmlns="http://www.w3.org/2000/svg">
<path d="M15.5644 11.7424L13.3316 9.50954C12.5342 8.71209 11.1785 9.0311 10.8595 10.0678C10.6203 10.7855 9.82284 11.1842 9.10514 11.0247C7.51025 10.626 5.35714 8.5526 4.95842 6.87797C4.71919 6.16024 5.19765 5.36279 5.91535 5.12359C6.95203 4.80461 7.27101 3.44895 6.47357 2.65151L4.24072 0.418659C3.60276 -0.139553 2.64583 -0.139553 2.08762 0.418659L0.572469 1.93381C-0.942678 3.5287 0.731958 7.75516 4.47995 11.5032C8.22795 15.2511 12.4544 17.0056 14.0493 15.4106L15.5644 13.8955C16.1227 13.2575 16.1227 12.3006 15.5644 11.7424Z" fill="#026B38"/>
</svg>
